{"title":"Argo 2012 TS x264 AAC-UNiQUE","uid":7749661,"size":1578844214,"categoryP":"video","categoryS":"movies","magnet":"?xt=urn:btih:8ee320d264370fdf00662e572e44b965cf886775&amp;dn=Argo+2012+TS+x264+AAC-UNiQUE&amp;tr=udp%3A%2F%2Ftracker.openbittorrent.com%3A80&amp;tr=udp%3A%2F%2Fopen.demonii.com%3A1337&amp;tr=udp%3A%2F%2Ftracker.coppersurfer.tk%3A6969&amp;tr=udp%3A%2F%2Fexodus.desync.com%3A6969","seeders":7,"leechers":1,"uploader":"Acesn8s","files":-1,"time":1350864247,"description":"General\nComplete name: Argo 2012 TS x264 AAC-UNiQUE.mp4\nFormat: MPEG-4\nFormat profile: Base Media\nCodec ID: isom\nFile size: 1.46 GiB\nDuration: 1h 51mn\nOverall bit rate mode: Variable\nOverall bit rate: 1 874 Kbps\nEncoded date: UTC 2012-10-21 21:21:13\n\nVideo\nID: 1\nFormat: AVC\nFormat/Info: Advanced Video Codec\nFormat profile: &lt;a class=&quot;__cf_email__&quot; href=&quot;/cdn-cgi/l/email-protection&quot; data-cfemail=&quot;d79fbeb0bf979be3f9e6&quot;&gt;[email&amp;#160;protected]&lt;/a&gt;&lt;script cf-hash='f9e31' type=&quot;text/javascript&quot;&gt;\n/* &lt;![CDATA[ */!function(){try{var t=&quot;currentScript&quot;in document?document.currentScript:function(){for(var t=document.getElementsByTagName(&quot;script&quot;),e=t.length;e--;)if(t[e].getAttribute(&quot;cf-hash&quot;))return t[e]}();if(t&amp;&amp;t.previousSibling){var e,r,n,i,c=t.previousSibling,a=c.getAttribute(&quot;data-cfemail&quot;);if(a){for(e=&quot;&quot;,r=parseInt(a.substr(0,2),16),n=2;a.length-n;n+=2)i=parseInt(a.substr(n,2),16)^r,e+=String.fromCharCode(i);e=document.createTextNode(e),c.parentNode.replaceChild(e,c)}}}catch(u){}}();/* ]]&gt; */&lt;/script&gt;\nFormat settings, CABAC: Yes\nFormat settings, ReFrames: 3 frames\nCodec ID: avc1\nCodec ID/Info: Advanced Video Coding\nDuration: 1h 51mn\nBit rate mode: Variable\nBit rate: 1 738 Kbps\nMaximum bit rate: 40.0 Mbps\nWidth: 720 pixels\nHeight: 336 pixels\nDisplay aspect ratio: 2.143\nFrame rate mode: Constant\nFrame rate: 23.976 fps\nColor space: YUV\nChroma subsampling: 4:2:0\nBit depth: 8 bits\nScan type: Progressive\nBits/(Pixel*Frame): 0.300\nStream size: 1.35 GiB (93%)\nWriting library: x264 core 128 r2216 198a7ea\n\nAudio\nID: 2\nFormat: AAC\nFormat/Info: Advanced Audio Codec\nFormat profile: LC\nCodec ID: 40\nDuration: 1h 51mn\nBit rate mode: Variable\nBit rate: 132 Kbps\nMaximum bit rate: 160 Kbps\nChannel(s): 2 channels\nChannel positions: Front: L R\nSampling rate: 44.1 KHz\nCompression mode: Lossy\nStream size: 105 MiB (7%)\nLanguage: English\nEncoded date: UTC 2012-10-21 21:22:30\n\nSources: Video - SHOWTiME - Thanks!\n             : Audio - Jiinx - Thanks!\n\nStoryline\nIn 1979, the American embassy in Iran was invaded by Iranian revolutionaries and several Americans are taken hostage. However, six manage to escape to the official residence of the Canadian Ambassador and the CIA is eventually ordered to get them out of the country\n\niMDB: http://www.imdb.com/title/tt1024648/  &lt;a href=&quot;\nhttp://i.imgur.com/WH39h.png&quot; rel=&quot;nofollow&quot; target=&quot;_NEW&quot;&gt;\nhttp://i.imgur.com/WH39h.png&lt;/a&gt; &lt;a href=&quot;\nhttp://i.imgur.com/mpZ8W.png&quot; rel=&quot;nofollow&quot; target=&quot;_NEW&quot;&gt;\nhttp://i.imgur.com/mpZ8W.png&lt;/a&gt; &lt;a href=&quot;\nhttp://i.imgur.com/JwhAo.png&quot; rel=&quot;nofollow&quot; target=&quot;_NEW&quot;&gt;\nhttp://i.imgur.com/JwhAo.png&lt;/a&gt; &lt;a href=&quot;\nhttp://i.imgur.com/NM8PW.png&quot; rel=&quot;nofollow&quot; target=&quot;_NEW&quot;&gt;\nhttp://i.imgur.com/NM8PW.png&lt;/a&gt; &lt;a href=&quot;\nhttp://i.imgur.com/pDM88.png&quot; rel=&quot;nofollow&quot; target=&quot;_NEW&quot;&gt;\nhttp://i.imgur.com/pDM88.png&lt;/a&gt;\n","torrent":{"xt":"urn:btih:8ee320d264370fdf00662e572e44b965cf886775","amp;dn":"Argo+2012+TS+x264+AAC-UNiQUE","amp;tr":["udp%3A%2F%2Ftracker.openbittorrent.com%3A80","udp%3A%2F%2Fopen.demonii.com%3A1337","udp%3A%2F%2Ftracker.coppersurfer.tk%3A6969","udp%3A%2F%2Fexodus.desync.com%3A6969"],"infoHash":"8ee320d264370fdf00662e572e44b965cf886775","infoHashBuffer":{"type":"Buffer","data":[142,227,32,210,100,55,15,223,0,102,46,87,46,68,185,101,207,136,103,117]},"announce":[],"urlList":[]}}